<?xml version="1.0" encoding="UTF-8"?>
<svg width="27px" height="27px" viewBox="0 0 27 27" version="1.1" xmlns="http://www.w3.org/2000/svg" xmlns:xlink="http://www.w3.org/1999/xlink">
    <!-- Generator: Sketch 53 (72520) - https://sketchapp.com -->
    <title>Group Copy</title>
    <desc>Created with Sketch.</desc>
    <g id="Symbols" stroke="none" stroke-width="1" fill="none" fill-rule="evenodd" stroke-linecap="round" stroke-linejoin="round">
        <g id="Icon/Basket" transform="translate(1.000000, 1.000000)" stroke="#3E3E3E" stroke-width="1.5">
            <g id="Group-Copy">
                <g id="shopping-cart-1">
                    <path d="M5.25049529,20.9965 L16.8249953,20.9965 C17.6785612,20.9965851 18.4076653,20.3808643 18.5504953,19.5393334 L21.6269953,1.45600004 C21.7703318,0.614932838 22.4993017,-0.000181690745 23.3524953,4.02576363e-08 L24.5004953,-2.66453526e-14" id="Shape"></path>
                    <path d="M7.43799529,23.6215 C7.67961987,23.6215 7.87549529,23.8173755 7.87549529,24.059 C7.87549529,24.3006246 7.67961987,24.4965 7.43799529,24.4965 C7.19637072,24.4965 7.00049529,24.3006246 7.00049529,24.059 C7.00049529,23.8173755 7.19637072,23.6215 7.43799529,23.6215" id="Shape"></path>
                    <path d="M16.1879953,23.6215 C16.4296199,23.6215 16.6254953,23.8173755 16.6254953,24.059 C16.6254953,24.3006246 16.4296199,24.4965 16.1879953,24.4965 C15.9463707,24.4965 15.7504953,24.3006246 15.7504953,24.059 C15.7504953,23.8173755 15.9463707,23.6215 16.1879953,23.6215" id="Shape"></path>
                    <path d="M19.195662,15.7465 L5.11282863,15.7465 C3.50711131,15.7463238 2.10748269,14.6535554 1.71782863,13.0958334 L0.0261619601,6.32916671 C-0.039248815,6.06767391 0.0195127577,5.79062771 0.185441747,5.57820213 C0.351370737,5.36577656 0.60594561,5.24168324 0.875495293,5.24183337 L20.9818286,5.24183324" id="Shape"></path>
                </g>
            </g>
        </g>
    </g>
</svg>